# xmcd
#
# Track frame offsets:
#	150
#	8560
#	17150
#	29272
#	39437
#	49702
#	56925
#	68575
#	80122
#	86770
#	97962
#	112440
#	123775
#	133915
#
# Disc length: 1961 seconds
#
# Revision: 0
# Processed by: cddbd v1.4PL0 Copyright (c) Steve Scherf et al.
# Submitted via: EasyCDDAExtractor 4.5.0.2
#
DISCID=bb07a70e
DTITLE=LULU BELLE and SCOTTY - THE SWEETHEARTS OF COUNTRY MUSIC 
DYEAR=1991
DGENRE=COUNTRY
TTITLE0=HOMECOMING TIME  IN HAPPY VALLEY
TTITLE1=EACH TIME YOU LEAVE 
TTITLE2=THE BROWN MOUNTAIN LIGHT 
TTITLE3=WHEN MY BLUE MOON TURNS TO GOLD  AGAIN 
TTITLE4=SHORTNIN BREAD 
TTITLE5=IN THE DOGHOUSE NOW 
TTITLE6=SUNDAY SCHOOL 
TTITLE7=REMEBER ME (WHEN THE CANDLE LIGHT ARE GLEAMING )
TTITLE8=DOES YOUR SPEARMENT LOSE IT'S FLAVOR 
TTITLE9=HAVE I TOLD YOU LATELY I LOVE YOU 
TTITLE10=SWEET LIPS
TTITLE11=WHAT YOU DON'T KNOW WON'T HURT YOU 
TTITLE12=MOUNTAIN DEW 
TTITLE13=THE  EMPTY XMAS STOCKING 
EXTD=
EXTT0=
EXTT1=
EXTT2=
EXTT3=
EXTT4=
EXTT5=
EXTT6=
EXTT7=
EXTT8=
EXTT9=
EXTT10=
EXTT11=
EXTT12=
EXTT13=
PLAYORDER=
